<svg version="1.1" id="Layer_1" xmlns="http://www.w3.org/2000/svg" xmlns:xlink="http://www.w3.org/1999/xlink" x="0px" y="0px"
	 width="100%" viewBox="0 0 992 992" enable-background="new 0 0 992 992" xml:space="preserve">
<path fill="#000000" opacity="1.000000" stroke="none" 
	d="
M630.984863,208.963684 
	C645.093079,214.702087 658.134705,221.684738 670.764221,229.451752 
	C688.644470,240.447937 705.230896,253.057861 720.801270,267.228973 
	C748.668335,292.591736 770.847656,322.068817 788.362488,355.324219 
	C804.391296,385.758392 814.538696,418.052185 820.223877,451.845886 
	C824.302246,476.088501 824.582092,500.639313 823.034119,524.970642 
	C820.537415,564.214966 810.653503,601.836426 793.579102,637.466064 
	C781.575317,662.514648 766.637512,685.546570 748.802734,706.857117 
	C717.690369,744.033020 679.677002,771.975464 635.864197,792.175232 
	C610.856873,803.704834 584.550293,811.390503 557.479126,816.339233 
	C531.175415,821.147705 504.479797,821.783447 478.011932,820.060791 
	C430.698090,816.981201 385.922394,803.770325 344.365356,780.717773 
	C322.817535,768.764709 302.980865,754.347961 284.433960,737.937561 
	C264.589783,720.379395 247.684570,700.413330 232.939316,678.676636 
	C209.553528,644.202393 194.098770,606.290222 185.518112,565.425659 
	C179.553452,537.019531 178.513107,508.339752 179.913498,479.647552 
	C181.358505,450.040955 187.751862,421.184021 197.938156,393.231445 
	C207.963623,365.720154 221.457947,340.066895 238.474686,316.262512 
	C249.225647,301.223206 261.118774,287.121246 274.381287,274.246552 
	C302.700562,246.755295 334.904114,225.017288 371.124847,209.204544 
	C397.009918,197.903976 423.948242,190.401215 451.756104,185.796539 
	C475.516144,181.862122 499.535583,181.586456 523.392151,182.922272 
	C559.893799,184.966110 595.143433,193.500748 628.868652,207.879471 
	C629.479065,208.139709 630.054077,208.483017 630.984863,208.963684 
M377.166412,229.688126 
	C374.181915,231.165359 371.204742,232.657562 368.211823,234.117584 
	C325.105164,255.146072 289.288788,285.058807 260.304535,323.152679 
	C242.046463,347.149231 227.684753,373.352325 217.450562,401.750580 
	C208.173767,427.492188 202.309875,454.067078 200.579620,481.321075 
	C199.606018,496.656586 199.734665,512.115601 201.180420,527.550964 
	C202.639023,543.123718 205.151611,558.476562 209.002045,573.562195 
	C216.155640,601.589478 227.185776,628.039429 242.052658,652.943176 
	C259.279144,681.799438 280.876801,706.898071 306.325745,728.651245 
	C320.872620,741.085571 336.657379,751.891479 353.420319,761.250061 
	C375.292816,773.461121 398.181000,783.131042 422.386047,789.606018 
	C450.876465,797.227478 479.819855,800.568726 509.363373,799.830750 
	C524.860901,799.443542 540.223816,798.125549 555.368958,795.345154 
	C589.132263,789.146667 621.017273,777.562927 650.888916,760.442627 
	C686.413147,740.082581 716.778870,713.866577 741.620178,681.345398 
	C760.230164,656.981995 774.919617,630.404968 785.410583,601.555908 
	C794.879944,575.516418 800.698547,548.607483 802.429626,521.030029 
	C803.372009,506.017578 803.348938,490.868225 801.823792,475.753052 
	C800.540100,463.029572 798.712341,450.441528 795.956726,437.986511 
	C789.591614,409.217316 779.207581,381.970428 764.621826,356.343262 
	C752.642273,335.295197 738.509766,315.816925 721.807373,298.275726 
	C713.088989,289.119537 703.888977,280.469788 694.112976,272.383209 
	C678.792603,259.710480 662.444946,248.628860 644.983765,239.212952 
	C625.613770,228.767670 605.382019,220.319626 584.150269,214.409775 
	C561.553284,208.119934 538.589050,203.983994 515.088684,203.390762 
	C506.124268,203.164490 497.148041,203.257431 488.179474,203.376740 
	C472.202820,203.589279 456.469269,205.966568 440.849396,209.124008 
	C419.100861,213.520264 398.103271,220.286240 377.166412,229.688126 
z"/>
<path fill="#000000" opacity="1.000000" stroke="none" 
	d="
M512.999878,418.352539 
	C477.503052,418.352570 442.506256,418.348480 407.509430,418.353943 
	C401.033905,418.354950 400.134735,418.991791 400.424316,425.490143 
	C400.737396,432.514587 399.209534,439.399872 399.361298,446.377502 
	C400.196869,484.794342 405.166016,522.521790 420.747620,558.012085 
	C429.382019,577.678528 440.461945,595.899780 455.152283,612.029724 
	C480.348633,639.695251 511.342163,656.142395 547.857483,662.386597 
	C564.068726,665.158752 580.408386,665.051086 596.885742,662.948608 
	C624.401184,659.437561 649.938293,650.826904 673.373230,636.106628 
	C694.391113,622.904541 711.343201,605.982422 720.679321,582.432495 
	C723.125916,576.260925 722.820679,577.516296 730.822754,579.080139 
	C735.441162,579.982666 734.346924,583.195740 733.579895,586.444458 
	C724.550903,624.689209 707.255554,658.899109 682.249146,689.020630 
	C651.174377,726.451782 611.589111,750.020386 563.644409,759.154846 
	C543.253906,763.039612 522.568970,763.276978 502.019440,762.117188 
	C476.611115,760.683167 451.731720,755.624023 427.807220,746.575562 
	C401.914490,736.782593 378.439697,723.022827 357.412354,704.882629 
	C331.408875,682.449585 311.501282,655.498962 296.813995,624.667480 
	C284.994446,599.855835 276.759308,573.842896 272.561157,546.597229 
	C270.591217,533.812561 269.576416,520.961121 268.389038,508.094086 
	C266.816895,491.057648 267.766907,474.193939 269.785248,457.434723 
	C272.730499,432.979523 279.247101,409.341797 288.926025,386.589355 
	C298.237732,364.700012 310.362457,344.533905 325.258972,326.061859 
	C344.783081,301.851440 367.927490,281.937408 395.404694,267.048859 
	C417.416168,255.121918 440.751770,247.132629 465.309845,243.048340 
	C486.300018,239.557434 507.471039,238.803818 528.826111,240.382111 
	C543.073120,241.435089 557.183838,242.981140 571.164001,245.665253 
	C603.797546,251.930725 633.949097,264.158447 660.104187,284.944275 
	C682.978821,303.123108 699.345703,326.229340 709.935059,353.518127 
	C716.406250,370.194550 719.813904,387.541199 722.288574,405.127594 
	C722.747070,408.386139 722.242615,411.743347 723.138733,415.029358 
	C723.661804,416.947083 722.645203,418.240417 720.478271,418.272522 
	C718.479065,418.302124 716.479736,418.348480 714.480469,418.348602 
	C647.486938,418.352539 580.493469,418.351776 512.999878,418.352539 
M549.437256,393.824738 
	C553.688477,392.489777 558.262329,391.740601 561.296875,388.007202 
	C568.526794,379.112213 572.870483,369.140869 572.691528,357.444244 
	C572.552429,348.348877 572.540527,339.348419 570.625061,330.291199 
	C565.141174,304.360413 553.906311,282.195312 530.433105,268.283081 
	C511.359253,256.978333 491.511719,255.741135 471.845520,267.239655 
	C449.964783,280.032928 436.549255,300.244690 425.735413,322.195984 
	C414.466309,345.071533 406.638794,369.214996 402.857697,394.563446 
	C402.057526,399.927917 403.079407,401.696991 408.661621,401.591187 
	C422.449615,401.329865 436.223358,401.611328 450.036774,400.964478 
	C473.072540,399.885773 496.107788,398.607880 519.154785,397.834564 
	C529.180542,397.498138 538.998474,396.667694 549.437256,393.824738 
z"/>
</svg>